<?xml version="1.0" standalone="no"?>
<!DOCTYPE svg PUBLIC "-//W3C//DTD SVG 20010904//EN"
 "http://www.w3.org/TR/2001/REC-SVG-20010904/DTD/svg10.dtd">
<svg version="1.0" xmlns="http://www.w3.org/2000/svg"
 width="875.000000pt" height="875.000000pt" viewBox="0 0 875.000000 875.000000"
 preserveAspectRatio="xMidYMid meet">
<metadata>
Created by potrace 1.11, written by Peter Selinger 2001-2013
</metadata>
<g transform="translate(0.000000,875.000000) scale(0.100000,-0.100000)"
fill="#000000" stroke="none">
<path d="M3826 8094 c-4 -9 -5 -18 -4 -19 2 -2 46 -27 98 -56 52 -29 111 -64
130 -76 19 -13 42 -28 50 -33 24 -16 134 -93 150 -107 8 -6 47 -37 85 -68 39
-31 125 -108 192 -172 l121 -116 -76 -93 c-85 -103 -170 -216 -178 -239 -4
-10 -22 8 -56 56 -28 39 -56 79 -63 88 -133 162 -171 202 -188 195 -23 -8
-202 -232 -289 -359 -103 -152 -237 -390 -238 -422 0 -7 -4 -13 -9 -13 -5 0
-12 -11 -15 -25 -4 -14 -20 -55 -36 -91 -17 -35 -30 -69 -30 -75 0 -5 -9 -29
-19 -53 -11 -23 -25 -64 -32 -92 -6 -27 -15 -53 -19 -59 -4 -5 -15 -44 -24
-85 -9 -41 -21 -84 -26 -95 -8 -18 -27 -117 -63 -335 -15 -94 -14 -698 2 -780
6 -36 13 -74 15 -85 23 -143 39 -224 46 -240 5 -11 16 -54 26 -95 9 -41 20
-79 24 -85 4 -5 15 -39 25 -75 9 -36 20 -69 24 -75 4 -5 16 -36 25 -67 10 -32
21 -60 26 -63 4 -3 11 -17 14 -31 7 -25 80 -178 138 -286 76 -140 207 -330
325 -470 40 -48 73 -91 73 -95 0 -10 -160 -162 -255 -243 -153 -130 -305 -236
-468 -326 -87 -49 -100 -66 -66 -87 12 -8 40 4 120 48 57 32 120 70 140 84 20
14 47 33 59 41 129 85 273 204 416 342 l100 98 100 -96 c141 -137 381 -330
464 -374 14 -7 27 -16 30 -20 3 -4 23 -17 45 -29 22 -12 69 -40 105 -61 74
-45 96 -49 106 -18 8 25 2 31 -111 94 -110 62 -141 82 -221 138 -63 45 -102
76 -219 169 -22 18 -89 80 -150 139 l-110 107 37 38 c20 21 79 95 131 165 l94
127 46 -62 c119 -163 224 -287 243 -287 6 0 36 28 66 63 169 195 264 331 392
561 33 60 140 286 151 319 4 12 8 24 10 27 27 62 64 170 75 220 7 30 16 60 20
65 5 6 16 51 26 100 9 50 20 95 25 100 4 6 14 71 23 145 9 74 21 158 26 185
32 170 16 578 -34 860 -20 112 -55 266 -66 290 -5 11 -17 49 -26 85 -8 36 -19
70 -24 75 -4 6 -14 30 -21 55 -7 25 -16 50 -21 56 -4 6 -17 35 -27 65 -19 55
-36 92 -95 209 -55 108 -69 135 -75 140 -3 3 -14 21 -25 40 -57 106 -249 372
-327 454 l-28 29 28 36 c62 78 278 265 436 378 108 77 303 198 336 208 28 9
22 49 -8 53 -38 6 -381 -209 -500 -313 -6 -5 -31 -26 -55 -45 -23 -19 -96 -86
-160 -149 -65 -63 -120 -113 -122 -110 -3 2 -56 54 -118 115 -62 61 -162 150
-223 198 -135 105 -113 90 -220 160 -50 32 -102 67 -117 77 -15 11 -31 19 -35
19 -5 0 -25 11 -45 25 -43 29 -93 33 -102 9z m962 -822 c100 -127 200 -272
269 -392 48 -82 121 -228 133 -265 7 -22 16 -42 20 -45 4 -3 15 -30 25 -60 10
-30 21 -59 25 -65 4 -5 15 -35 24 -65 10 -30 21 -64 26 -75 21 -47 79 -292
110 -470 37 -210 37 -702 0 -910 -34 -191 -90 -426 -115 -480 -7 -16 -19 -50
-25 -75 -7 -25 -15 -49 -20 -55 -4 -5 -13 -28 -20 -50 -7 -22 -18 -51 -25 -65
-7 -14 -39 -79 -70 -145 -102 -215 -284 -493 -418 -640 l-42 -46 -70 85 c-72
87 -143 182 -186 248 -13 21 -28 36 -34 35 -5 -2 -30 -33 -55 -69 -71 -103
-144 -198 -198 -260 l-51 -58 -84 105 c-94 118 -185 249 -253 363 -25 42 -49
84 -54 92 -10 16 -83 164 -119 241 -11 25 -21 49 -21 53 0 4 -10 31 -23 59
-13 29 -38 99 -56 157 -19 58 -36 112 -39 120 -26 70 -60 254 -102 555 -18
127 -8 500 18 695 12 91 27 176 32 190 5 14 18 63 29 110 23 104 58 225 76
265 7 17 18 49 24 72 7 23 15 45 20 47 5 3 12 18 16 33 6 26 62 152 86 196 5
10 29 55 51 100 23 45 45 84 49 87 3 3 14 20 23 37 14 29 26 48 79 126 6 11
29 42 50 70 20 29 45 63 55 76 9 13 46 59 81 102 l64 77 56 -66 c61 -72 151
-190 196 -259 15 -24 33 -43 40 -43 6 0 23 18 38 41 76 116 251 339 265 339 4
0 49 -53 100 -118z"/>
<path d="M3926 6949 c-55 -65 -19 -149 65 -149 33 0 47 6 70 31 37 40 37 65
-2 112 -25 31 -37 37 -69 37 -30 0 -43 -6 -64 -31z"/>
<path d="M4220 6860 c0 -5 -26 -63 -59 -129 -57 -117 -74 -158 -72 -173 1 -5
-3 -8 -7 -8 -4 0 -14 -21 -21 -47 -8 -27 -18 -55 -22 -63 -15 -28 -67 -195
-80 -255 -7 -33 -16 -64 -20 -70 -4 -5 -14 -57 -23 -115 -9 -58 -21 -121 -26
-140 -31 -117 -40 -611 -15 -820 17 -143 52 -348 64 -375 5 -11 17 -54 27 -95
9 -41 20 -79 24 -85 4 -5 11 -26 15 -45 11 -53 66 -193 136 -348 16 -35 29
-68 29 -73 0 -5 3 -9 8 -9 4 0 15 -20 25 -45 19 -45 37 -55 67 -35 13 8 10 20
-22 82 -43 83 -98 205 -98 216 0 4 -6 19 -14 34 -8 14 -19 43 -26 65 -7 21
-18 52 -25 68 -30 67 -98 327 -121 460 -39 229 -57 488 -45 680 9 148 45 433
60 475 5 14 17 61 26 105 9 44 20 89 25 100 5 11 17 49 26 85 9 36 20 70 24
75 4 6 15 34 25 64 9 29 24 65 31 80 8 14 14 30 14 35 0 21 122 266 133 266
15 0 6 30 -12 40 -25 13 -51 13 -51 0z"/>
<path d="M4493 6863 c-7 -2 -13 -11 -13 -18 0 -16 29 -73 48 -93 6 -7 12 -18
12 -23 0 -10 53 -128 84 -189 7 -14 30 -74 51 -135 20 -60 40 -117 43 -125 3
-8 6 -17 7 -20 2 -7 25 -86 41 -145 19 -66 52 -243 70 -375 20 -145 20 -578 0
-730 -19 -147 -54 -339 -66 -365 -5 -11 -14 -42 -20 -70 -17 -76 -59 -195
-146 -415 -10 -25 -23 -52 -30 -60 -6 -8 -15 -26 -19 -40 -4 -14 -19 -46 -34
-73 -22 -41 -24 -49 -11 -57 34 -22 48 -10 93 83 150 307 258 661 286 937 6
58 16 141 22 185 13 95 7 414 -9 570 -17 155 -71 449 -88 476 -4 6 -15 41 -25
78 -30 110 -86 262 -135 368 -13 28 -24 57 -24 62 0 6 -4 11 -8 11 -4 0 -16
23 -27 50 -11 28 -22 50 -25 50 -3 0 -12 16 -19 35 -12 34 -27 41 -58 28z"/>
<path d="M4037 5403 c-4 -3 -7 -19 -7 -35 l0 -28 360 0 360 0 0 35 0 35 -353
0 c-195 0 -357 -3 -360 -7z"/>
<path d="M4715 3790 c-41 -17 -65 -49 -65 -88 1 -41 13 -63 47 -80 75 -41 164
32 134 110 -16 43 -78 74 -116 58z"/>
<path d="M1619 1964 c-111 -43 -216 -139 -255 -234 -8 -19 -19 -44 -24 -55
-41 -93 -42 -617 0 -670 4 -5 11 -21 15 -35 13 -41 81 -135 127 -175 24 -20
70 -50 102 -66 57 -28 65 -29 202 -29 135 0 145 1 206 29 58 26 139 93 178
147 27 37 61 110 76 165 21 75 30 387 15 502 -27 199 -112 326 -271 404 -72
36 -80 38 -190 40 -103 2 -122 0 -181 -23z m366 -95 c79 -46 145 -128 181
-227 29 -76 29 -79 29 -303 0 -152 -4 -234 -12 -250 -6 -13 -18 -45 -26 -71
-17 -53 -67 -131 -106 -165 -15 -12 -48 -35 -76 -50 -48 -27 -56 -28 -185 -28
-124 0 -139 2 -184 25 -120 61 -202 191 -224 355 -14 104 -7 379 11 425 3 8
11 35 18 60 29 117 125 214 259 264 8 3 69 4 135 3 116 -3 122 -4 180 -38z"/>
<path d="M3642 1964 c-134 -51 -234 -155 -271 -279 -7 -22 -18 -51 -24 -64 -8
-17 -12 -104 -12 -280 0 -249 1 -258 25 -326 30 -81 88 -173 133 -211 18 -14
40 -32 50 -40 10 -8 43 -26 74 -39 50 -23 68 -25 197 -25 137 0 145 1 202 29
67 32 162 114 184 157 8 16 19 36 26 44 6 8 24 51 40 95 27 79 28 84 28 305 1
208 -1 230 -22 299 -55 176 -147 279 -299 337 -92 34 -240 34 -331 -2z m353
-87 c107 -55 197 -188 216 -321 12 -87 11 -367 -2 -444 -24 -134 -109 -259
-215 -312 -45 -23 -60 -25 -184 -25 -130 0 -137 1 -185 28 -99 57 -168 145
-202 262 -22 74 -27 406 -8 505 32 167 121 275 270 331 11 5 74 7 140 5 106
-3 126 -6 170 -29z"/>
<path d="M4813 1966 c-56 -21 -136 -75 -171 -116 -35 -40 -81 -121 -100 -176
-34 -95 -45 -209 -39 -399 5 -183 23 -261 82 -367 38 -68 119 -145 188 -179
59 -28 65 -29 212 -29 83 0 155 4 161 9 5 5 25 14 44 20 64 20 156 105 185
169 9 21 21 46 26 57 9 20 29 116 29 141 0 10 -13 14 -39 14 l-38 0 -7 -56
c-13 -109 -78 -202 -178 -256 -39 -21 -56 -23 -183 -23 l-140 0 -58 33 c-104
61 -177 176 -198 313 -14 93 -7 449 11 499 44 123 103 201 195 255 49 29 53
30 185 30 129 0 137 -1 189 -28 30 -16 67 -41 82 -55 41 -40 87 -135 94 -197
l7 -55 39 0 c44 0 44 0 28 83 -18 101 -78 197 -162 260 -102 77 -312 102 -444
53z"/>
<path d="M130 1340 l0 -640 35 0 35 0 0 315 0 315 388 0 387 0 -3 -315 -3
-315 41 0 40 0 -2 638 -3 637 -35 0 -35 0 0 -288 0 -287 -387 0 -388 0 0 290
0 290 -35 0 -35 0 0 -640z"/>
<path d="M2530 1340 l0 -640 355 0 355 0 0 35 0 35 -320 0 -320 0 0 605 0 605
-35 0 -35 0 0 -640z"/>
<path d="M5697 1973 c-4 -3 -7 -291 -7 -640 l0 -633 395 0 395 0 0 35 0 35
-355 0 -355 0 0 275 0 275 315 0 315 0 0 30 0 30 -315 0 -315 0 0 265 0 265
355 0 355 0 0 35 0 35 -388 0 c-214 0 -392 -3 -395 -7z"/>
<path d="M7017 1973 c-5 -8 -42 -102 -82 -208 -13 -33 -29 -78 -35 -100 -7
-22 -16 -44 -20 -50 -4 -5 -15 -35 -25 -65 -10 -30 -21 -59 -25 -65 -5 -5 -15
-32 -23 -60 -21 -66 -65 -186 -75 -205 -5 -8 -17 -42 -27 -75 -10 -33 -21 -64
-25 -70 -4 -5 -15 -35 -25 -65 -10 -30 -21 -59 -25 -65 -4 -5 -13 -28 -20 -50
-6 -22 -23 -68 -36 -102 -33 -83 -32 -93 10 -93 23 0 36 6 41 18 11 24 52 136
75 202 10 30 28 78 38 105 l20 50 295 3 295 2 12 -32 c38 -99 63 -169 79 -218
37 -109 51 -130 87 -130 33 0 55 17 36 29 -5 3 -18 33 -27 66 -10 33 -21 65
-26 71 -5 6 -16 36 -25 65 -9 30 -20 59 -24 64 -4 6 -16 37 -26 70 -10 33 -22
62 -25 65 -4 3 -15 32 -24 65 -10 33 -21 65 -25 70 -4 6 -15 34 -24 64 -9 29
-20 59 -25 65 -5 6 -16 38 -26 71 -9 33 -20 65 -25 70 -4 6 -15 35 -25 65 -10
30 -21 60 -25 65 -4 6 -15 35 -24 66 -9 31 -23 69 -31 85 -8 16 -15 33 -15 37
0 4 -8 27 -19 50 -10 23 -21 50 -24 60 -4 12 -17 17 -41 17 -19 0 -37 -3 -39
-7z m80 -218 c8 -27 18 -54 23 -60 4 -5 15 -35 25 -65 10 -30 21 -59 25 -65 4
-5 15 -37 25 -70 10 -33 22 -67 27 -75 10 -19 54 -138 75 -205 8 -27 20 -53
27 -57 6 -4 -114 -8 -266 -8 l-277 0 15 38 c8 20 21 51 28 67 8 17 19 48 26
70 7 22 16 45 20 50 4 6 15 37 25 70 9 33 20 65 25 70 4 6 13 28 20 50 7 22
18 54 26 70 7 17 23 57 35 90 11 33 28 80 36 103 l16 44 14 -34 c8 -18 22 -55
30 -83z"/>
<path d="M7747 1973 c-4 -3 -7 -291 -7 -640 l0 -633 40 0 40 0 0 568 c0 567 0
567 20 542 11 -14 72 -101 136 -195 63 -93 154 -226 201 -295 47 -69 123 -179
168 -245 45 -66 97 -142 116 -170 20 -27 55 -79 80 -115 57 -86 62 -90 98 -90
l31 0 0 640 0 640 -35 0 -35 0 -2 -571 -3 -571 -80 117 c-44 64 -87 127 -95
140 -37 56 -115 170 -120 175 -3 3 -26 37 -52 75 -40 59 -105 153 -148 215 -6
8 -59 87 -119 175 -165 242 -167 245 -200 245 -15 0 -31 -3 -34 -7z"/>
</g>
</svg>
